<svg id="my-svg" width="100%" xmlns="http://www.w3.org/2000/svg" xmlns:xlink="http://www.w3.org/1999/xlink" class="classDiagram" style="max-width: 1392.29px; background-color: white;" viewBox="0 0 1392.29296875 1240" role="graphics-document document" aria-roledescription="class"><style>#my-svg{font-family:"trebuchet ms",verdana,arial,sans-serif;font-size:24px;fill:#333;}@keyframes edge-animation-frame{from{stroke-dashoffset:0;}}@keyframes dash{to{stroke-dashoffset:0;}}#my-svg .edge-animation-slow{stroke-dasharray:9,5!important;stroke-dashoffset:900;animation:dash 50s linear infinite;stroke-linecap:round;}#my-svg .edge-animation-fast{stroke-dasharray:9,5!important;stroke-dashoffset:900;animation:dash 20s linear infinite;stroke-linecap:round;}#my-svg .error-icon{fill:#552222;}#my-svg .error-text{fill:#552222;stroke:#552222;}#my-svg .edge-thickness-normal{stroke-width:1px;}#my-svg .edge-thickness-thick{stroke-width:3.5px;}#my-svg .edge-pattern-solid{stroke-dasharray:0;}#my-svg .edge-thickness-invisible{stroke-width:0;fill:none;}#my-svg .edge-pattern-dashed{stroke-dasharray:3;}#my-svg .edge-pattern-dotted{stroke-dasharray:2;}#my-svg .marker{fill:#333333;stroke:#333333;}#my-svg .marker.cross{stroke:#333333;}#my-svg svg{font-family:"trebuchet ms",verdana,arial,sans-serif;font-size:24px;}#my-svg p{margin:0;}#my-svg g.classGroup text{fill:#9370DB;stroke:none;font-family:"trebuchet ms",verdana,arial,sans-serif;font-size:10px;}#my-svg g.classGroup text .title{font-weight:bolder;}#my-svg .cluster-label text{fill:#333;}#my-svg .cluster-label span{color:#333;}#my-svg .cluster-label span p{background-color:transparent;}#my-svg .cluster rect{fill:#ffffde;stroke:#aaaa33;stroke-width:1px;}#my-svg .cluster text{fill:#333;}#my-svg .cluster span{color:#333;}#my-svg .nodeLabel,#my-svg .edgeLabel{color:#131300;}#my-svg .edgeLabel .label rect{fill:#ECECFF;}#my-svg .label text{fill:#131300;}#my-svg .labelBkg{background:#ECECFF;}#my-svg .edgeLabel .label span{background:#ECECFF;}#my-svg .classTitle{font-weight:bolder;}#my-svg .node rect,#my-svg .node circle,#my-svg .node ellipse,#my-svg .node polygon,#my-svg .node path{fill:#ECECFF;stroke:#9370DB;stroke-width:1px;}#my-svg .divider{stroke:#9370DB;stroke-width:1;}#my-svg g.clickable{cursor:pointer;}#my-svg g.classGroup rect{fill:#ECECFF;stroke:#9370DB;}#my-svg g.classGroup line{stroke:#9370DB;stroke-width:1;}#my-svg .classLabel .box{stroke:none;stroke-width:0;fill:#ECECFF;opacity:0.5;}#my-svg .classLabel .label{fill:#9370DB;font-size:10px;}#my-svg .relation{stroke:#333333;stroke-width:1;fill:none;}#my-svg .dashed-line{stroke-dasharray:3;}#my-svg .dotted-line{stroke-dasharray:1 2;}#my-svg #compositionStart,#my-svg .composition{fill:#333333!important;stroke:#333333!important;stroke-width:1;}#my-svg #compositionEnd,#my-svg .composition{fill:#333333!important;stroke:#333333!important;stroke-width:1;}#my-svg #dependencyStart,#my-svg .dependency{fill:#333333!important;stroke:#333333!important;stroke-width:1;}#my-svg #dependencyStart,#my-svg .dependency{fill:#333333!important;stroke:#333333!important;stroke-width:1;}#my-svg #extensionStart,#my-svg .extension{fill:transparent!important;stroke:#333333!important;stroke-width:1;}#my-svg #extensionEnd,#my-svg .extension{fill:transparent!important;stroke:#333333!important;stroke-width:1;}#my-svg #aggregationStart,#my-svg .aggregation{fill:transparent!important;stroke:#333333!important;stroke-width:1;}#my-svg #aggregationEnd,#my-svg .aggregation{fill:transparent!important;stroke:#333333!important;stroke-width:1;}#my-svg #lollipopStart,#my-svg .lollipop{fill:#ECECFF!important;stroke:#333333!important;stroke-width:1;}#my-svg #lollipopEnd,#my-svg .lollipop{fill:#ECECFF!important;stroke:#333333!important;stroke-width:1;}#my-svg .edgeTerminals{font-size:11px;line-height:initial;}#my-svg .classTitleText{text-anchor:middle;font-size:18px;fill:#333;}#my-svg .label-icon{display:inline-block;height:1em;overflow:visible;vertical-align:-0.125em;}#my-svg .node .label-icon path{fill:currentColor;stroke:revert;stroke-width:revert;}#my-svg :root{--mermaid-font-family:"trebuchet ms",verdana,arial,sans-serif;}</style><g><defs><marker id="my-svg_class-aggregationStart" class="marker aggregation class" refX="18" refY="7" markerWidth="190" markerHeight="240" orient="auto"><path d="M 18,7 L9,13 L1,7 L9,1 Z"/></marker></defs><defs><marker id="my-svg_class-aggregationEnd" class="marker aggregation class" refX="1" refY="7" markerWidth="20" markerHeight="28" orient="auto"><path d="M 18,7 L9,13 L1,7 L9,1 Z"/></marker></defs><defs><marker id="my-svg_class-extensionStart" class="marker extension class" refX="18" refY="7" markerWidth="190" markerHeight="240" orient="auto"><path d="M 1,7 L18,13 V 1 Z"/></marker></defs><defs><marker id="my-svg_class-extensionEnd" class="marker extension class" refX="1" refY="7" markerWidth="20" markerHeight="28" orient="auto"><path d="M 1,1 V 13 L18,7 Z"/></marker></defs><defs><marker id="my-svg_class-compositionStart" class="marker composition class" refX="18" refY="7" markerWidth="190" markerHeight="240" orient="auto"><path d="M 18,7 L9,13 L1,7 L9,1 Z"/></marker></defs><defs><marker id="my-svg_class-compositionEnd" class="marker composition class" refX="1" refY="7" markerWidth="20" markerHeight="28" orient="auto"><path d="M 18,7 L9,13 L1,7 L9,1 Z"/></marker></defs><defs><marker id="my-svg_class-dependencyStart" class="marker dependency class" refX="6" refY="7" markerWidth="190" markerHeight="240" orient="auto"><path d="M 5,7 L9,13 L1,7 L9,1 Z"/></marker></defs><defs><marker id="my-svg_class-dependencyEnd" class="marker dependency class" refX="13" refY="7" markerWidth="20" markerHeight="28" orient="auto"><path d="M 18,7 L9,13 L14,7 L9,1 Z"/></marker></defs><defs><marker id="my-svg_class-lollipopStart" class="marker lollipop class" refX="13" refY="7" markerWidth="190" markerHeight="240" orient="auto"><circle fill="transparent" cx="7" cy="7" r="6"/></marker></defs><defs><marker id="my-svg_class-lollipopEnd" class="marker lollipop class" refX="1" refY="7" markerWidth="190" markerHeight="240" orient="auto"><circle fill="transparent" cx="7" cy="7" r="6"/></marker></defs><g class="root"><g class="clusters"/><g class="edgePaths"><path d="M282.07,694L282.07,698.167C282.07,702.333,282.07,710.667,282.07,718C282.07,725.333,282.07,731.667,282.07,734.833L282.07,738" id="id_VSClonePlanModeService_VSCloneUnifiedChatBackendService_1" class="edge-thickness-normal edge-pattern-solid relation" style=";;;" data-edge="true" data-et="edge" data-id="id_VSClonePlanModeService_VSCloneUnifiedChatBackendService_1" data-points="W3sieCI6MjgyLjA3MDMxMjUsInkiOjY5NH0seyJ4IjoyODIuMDcwMzEyNSwieSI6NzE5fSx7IngiOjI4Mi4wNzAzMTI1LCJ5Ijo3NDR9XQ==" marker-end="url(#my-svg_class-dependencyEnd)"/><path d="M282.07,930L282.07,934.167C282.07,938.333,282.07,946.667,282.07,954C282.07,961.333,282.07,967.667,282.07,970.833L282.07,974" id="id_VSCloneUnifiedChatBackendService_VSCloneChatHistoryModel_2" class="edge-thickness-normal edge-pattern-solid relation" style=";;;" data-edge="true" data-et="edge" data-id="id_VSCloneUnifiedChatBackendService_VSCloneChatHistoryModel_2" data-points="W3sieCI6MjgyLjA3MDMxMjUsInkiOjkzMH0seyJ4IjoyODIuMDcwMzEyNSwieSI6OTU1fSx7IngiOjI4Mi4wNzAzMTI1LCJ5Ijo5ODB9XQ==" marker-end="url(#my-svg_class-dependencyEnd)"/><path d="M341.831,176L330.205,180.167C318.578,184.333,295.324,192.667,283.819,200.001C272.315,207.335,272.559,213.67,272.682,216.837L272.804,220.004" id="id_VSCloneChatSessionService_VSClonePlanModeService_3" class="edge-thickness-normal edge-pattern-solid relation" style=";;;" data-edge="true" data-et="edge" data-id="id_VSCloneChatSessionService_VSClonePlanModeService_3" data-points="W3sieCI6MzQxLjgzMTM2ODI2MjYxNDY2LCJ5IjoxNzZ9LHsieCI6MjcyLjA3MDMxMjUsInkiOjIwMX0seyJ4IjoyNzMuMDM1NTYzNDY1MjUwOTYsInkiOjIyNn1d" marker-end="url(#my-svg_class-dependencyEnd)"/><path d="M802.919,176L814.164,180.167C825.408,184.333,847.898,192.667,859.142,225C870.387,257.333,870.387,313.667,870.387,341.833L870.387,370" id="id_VSCloneChatSessionService_VSClonePromptAssemblyService_4" class="edge-thickness-normal edge-pattern-solid relation" style=";;;" data-edge="true" data-et="edge" data-id="id_VSCloneChatSessionService_VSClonePromptAssemblyService_4" data-points="W3sieCI6ODAyLjkxOTI0MDk2OTAzNjgsInkiOjE3Nn0seyJ4Ijo4NzAuMzg2NzE4NzUsInkiOjIwMX0seyJ4Ijo4NzAuMzg2NzE4NzUsInkiOjM3Nn1d" marker-end="url(#my-svg_class-dependencyEnd)"/><path d="M870.387,544L870.387,573.167C870.387,602.333,870.387,660.667,887.186,697.103C903.985,733.539,937.584,748.078,954.383,755.348L971.182,762.617" id="id_VSClonePromptAssemblyService_VSCLONE_TOOL_DEFINITIONS_5" class="edge-thickness-normal edge-pattern-solid relation" style=";;;" data-edge="true" data-et="edge" data-id="id_VSClonePromptAssemblyService_VSCLONE_TOOL_DEFINITIONS_5" data-points="W3sieCI6ODcwLjM4NjcxODc1LCJ5Ijo1NDR9LHsieCI6ODcwLjM4NjcxODc1LCJ5Ijo3MTl9LHsieCI6OTc2LjY4ODYyNTUyOTY2MTEsInkiOjc2NX1d" marker-end="url(#my-svg_class-dependencyEnd)"/><path d="M881.855,140.307L829.251,150.423C776.646,160.538,671.438,180.769,613.2,196.019C554.963,211.269,543.697,221.537,538.063,226.671L532.43,231.806" id="id_VSCloneToolExecutionService_VSClonePlanModeService_6" class="edge-thickness-normal edge-pattern-solid relation" style=";;;" data-edge="true" data-et="edge" data-id="id_VSCloneToolExecutionService_VSClonePlanModeService_6" data-points="W3sieCI6ODgxLjg1NTQ2ODc1LCJ5IjoxNDAuMzA3NDAyODc3MDc4MTJ9LHsieCI6NTY2LjIyODUxNTYyNSwieSI6MjAxfSx7IngiOjUyNy45OTYwOTM3NSwieSI6MjM1Ljg0NzQ3OTg3ODIwMzg0fV0=" marker-end="url(#my-svg_class-dependencyEnd)"/><path d="M1266.931,176L1273.571,180.167C1280.211,184.333,1293.49,192.667,1300.13,240C1306.77,287.333,1306.77,373.667,1306.77,460C1306.77,546.333,1306.77,632.667,1296.945,682.915C1287.121,733.164,1267.472,747.328,1257.648,754.41L1247.823,761.491" id="id_VSCloneToolExecutionService_VSCLONE_TOOL_DEFINITIONS_7" class="edge-thickness-normal edge-pattern-solid relation" style=";;;" data-edge="true" data-et="edge" data-id="id_VSCloneToolExecutionService_VSCLONE_TOOL_DEFINITIONS_7" data-points="W3sieCI6MTI2Ni45MzExNTY4MjMzOTQ1LCJ5IjoxNzZ9LHsieCI6MTMwNi43Njk1MzEyNSwieSI6MjAxfSx7IngiOjEzMDYuNzY5NTMxMjUsInkiOjQ2MH0seyJ4IjoxMzA2Ljc2OTUzMTI1LCJ5Ijo3MTl9LHsieCI6MTI0Mi45NTYxMDQzNDMyMjA0LCJ5Ijo3NjV9XQ==" marker-end="url(#my-svg_class-dependencyEnd)"/></g><g class="edgeLabels"><g class="edgeLabel"><g class="label" data-id="id_VSClonePlanModeService_VSCloneUnifiedChatBackendService_1" transform="translate(0, 0)"><foreignObject width="0" height="0"><div xmlns="http://www.w3.org/1999/xhtml" class="labelBkg" style="display: table-cell; white-space: nowrap; line-height: 1.5; max-width: 200px; text-align: center;"><span class="edgeLabel"></span></div></foreignObject></g></g><g class="edgeLabel"><g class="label" data-id="id_VSCloneUnifiedChatBackendService_VSCloneChatHistoryModel_2" transform="translate(0, 0)"><foreignObject width="0" height="0"><div xmlns="http://www.w3.org/1999/xhtml" class="labelBkg" style="display: table-cell; white-space: nowrap; line-height: 1.5; max-width: 200px; text-align: center;"><span class="edgeLabel"></span></div></foreignObject></g></g><g class="edgeLabel"><g class="label" data-id="id_VSCloneChatSessionService_VSClonePlanModeService_3" transform="translate(0, 0)"><foreignObject width="0" height="0"><div xmlns="http://www.w3.org/1999/xhtml" class="labelBkg" style="display: table-cell; white-space: nowrap; line-height: 1.5; max-width: 200px; text-align: center;"><span class="edgeLabel"></span></div></foreignObject></g></g><g class="edgeLabel"><g class="label" data-id="id_VSCloneChatSessionService_VSClonePromptAssemblyService_4" transform="translate(0, 0)"><foreignObject width="0" height="0"><div xmlns="http://www.w3.org/1999/xhtml" class="labelBkg" style="display: table-cell; white-space: nowrap; line-height: 1.5; max-width: 200px; text-align: center;"><span class="edgeLabel"></span></div></foreignObject></g></g><g class="edgeLabel"><g class="label" data-id="id_VSClonePromptAssemblyService_VSCLONE_TOOL_DEFINITIONS_5" transform="translate(0, 0)"><foreignObject width="0" height="0"><div xmlns="http://www.w3.org/1999/xhtml" class="labelBkg" style="display: table-cell; white-space: nowrap; line-height: 1.5; max-width: 200px; text-align: center;"><span class="edgeLabel"></span></div></foreignObject></g></g><g class="edgeLabel"><g class="label" data-id="id_VSCloneToolExecutionService_VSClonePlanModeService_6" transform="translate(0, 0)"><foreignObject width="0" height="0"><div xmlns="http://www.w3.org/1999/xhtml" class="labelBkg" style="display: table-cell; white-space: nowrap; line-height: 1.5; max-width: 200px; text-align: center;"><span class="edgeLabel"></span></div></foreignObject></g></g><g class="edgeLabel"><g class="label" data-id="id_VSCloneToolExecutionService_VSCLONE_TOOL_DEFINITIONS_7" transform="translate(0, 0)"><foreignObject width="0" height="0"><div xmlns="http://www.w3.org/1999/xhtml" class="labelBkg" style="display: table-cell; white-space: nowrap; line-height: 1.5; max-width: 200px; text-align: center;"><span class="edgeLabel"></span></div></foreignObject></g></g></g><g class="nodes"><g class="node default" id="classId-VSClonePlanModeService-0" transform="translate(282.0703125, 460)"><g class="basic label-container"><path d="M-245.92578125 -234 L245.92578125 -234 L245.92578125 234 L-245.92578125 234" stroke="none" stroke-width="0" fill="#ECECFF" style=""/><path d="M-245.92578125 -234 C-127.13389605054849 -234, -8.342010851096973 -234, 245.92578125 -234 M-245.92578125 -234 C-134.01506339027833 -234, -22.10434553055663 -234, 245.92578125 -234 M245.92578125 -234 C245.92578125 -76.79919997704499, 245.92578125 80.40160004591002, 245.92578125 234 M245.92578125 -234 C245.92578125 -99.92589857385465, 245.92578125 34.148202852290694, 245.92578125 234 M245.92578125 234 C83.01465289039612 234, -79.89647546920776 234, -245.92578125 234 M245.92578125 234 C97.0147022002356 234, -51.89637684952879 234, -245.92578125 234 M-245.92578125 234 C-245.92578125 63.28821157945322, -245.92578125 -107.42357684109356, -245.92578125 -234 M-245.92578125 234 C-245.92578125 114.45497797996572, -245.92578125 -5.0900440400685625, -245.92578125 -234" stroke="#9370DB" stroke-width="1.3" fill="none" stroke-dasharray="0 0" style=""/></g><g class="annotation-group text" transform="translate(0, -210)"/><g class="label-group text" transform="translate(-140.3828125, -210)"><g class="label" style="font-weight: bolder" transform="translate(0,-18)"><foreignObject width="280.765625" height="36"><div xmlns="http://www.w3.org/1999/xhtml" style="display: table; white-space: break-spaces; line-height: 1.5; max-width: 222px; text-align: center; width: 222px;"><span class="nodeLabel markdown-node-label" style=""><p>VSClonePlanModeService</p></span></div></foreignObject></g></g><g class="members-group text" transform="translate(-233.92578125, -150)"><g class="label" style="" transform="translate(0,-36)"><foreignObject width="159.4375" height="72"><div xmlns="http://www.w3.org/1999/xhtml" style="display: table; white-space: break-spaces; line-height: 1.5; max-width: 159px; text-align: center; width: 159px;"><span class="nodeLabel markdown-node-label" style=""><p>-composerMode</p></span></div></foreignObject></g><g class="label" style="" transform="translate(0,54)"><foreignObject width="116.359375" height="36"><div xmlns="http://www.w3.org/1999/xhtml" style="display: table-cell; white-space: nowrap; line-height: 1.5; max-width: 124px; text-align: center;"><span class="nodeLabel markdown-node-label" style=""><p>-initialized</p></span></div></foreignObject></g><g class="label" style="" transform="translate(0,90)"><foreignObject width="121.90625" height="36"><div xmlns="http://www.w3.org/1999/xhtml" style="display: table-cell; white-space: nowrap; line-height: 1.5; max-width: 129px; text-align: center;"><span class="nodeLabel markdown-node-label" style=""><p>-initializing</p></span></div></foreignObject></g></g><g class="methods-group text" transform="translate(-233.92578125, 36)"><g class="label" style="" transform="translate(0,-18)"><foreignObject width="124.390625" height="36"><div xmlns="http://www.w3.org/1999/xhtml" style="display: table-cell; white-space: nowrap; line-height: 1.5; max-width: 130px; text-align: center;"><span class="nodeLabel markdown-node-label" style=""><p>+initialize()</p></span></div></foreignObject></g><g class="label" style="" transform="translate(0,18)"><foreignObject width="322.5625" height="36"><div xmlns="http://www.w3.org/1999/xhtml" style="display: table; white-space: break-spaces; line-height: 1.5; max-width: 252px; text-align: center; width: 252px;"><span class="nodeLabel markdown-node-label" style=""><p>+getModeForThread(threadId)</p></span></div></foreignObject></g><g class="label" style="" transform="translate(0,36)"><foreignObject width="327.46875" height="72"><div xmlns="http://www.w3.org/1999/xhtml" style="display: table; white-space: break-spaces; line-height: 1.5; max-width: 294px; text-align: center; width: 294px;"><span class="nodeLabel markdown-node-label" style=""><p>+setModeForThread(threadId, mode)</p></span></div></foreignObject></g><g class="label" style="" transform="translate(0,108)"><foreignObject width="276" height="72"><div xmlns="http://www.w3.org/1999/xhtml" style="display: table; white-space: break-spaces; line-height: 1.5; max-width: 276px; text-align: center; width: 276px;"><span class="nodeLabel markdown-node-label" style=""><p>+isToolAllowed(mode, toolName)</p></span></div></foreignObject></g></g><g class="divider" style=""><path d="M-245.92578125 -174 C-86.87927729689349 -174, 72.16722665621302 -174, 245.92578125 -174 M-245.92578125 -174 C-49.299974511276304 -174, 147.3258322274474 -174, 245.92578125 -174" stroke="#9370DB" stroke-width="1.3" fill="none" stroke-dasharray="0 0" style=""/></g><g class="divider" style=""><path d="M-245.92578125 12 C-52.90078088474354 12, 140.12421948051292 12, 245.92578125 12 M-245.92578125 12 C-76.44099059133995 12, 93.04380006732009 12, 245.92578125 12" stroke="#9370DB" stroke-width="1.3" fill="none" stroke-dasharray="0 0" style=""/></g></g><g class="node default" id="classId-VSCloneUnifiedChatBackendService-1" transform="translate(282.0703125, 837)"><g class="basic label-container"><path d="M-274.0703125 -93 L274.0703125 -93 L274.0703125 93 L-274.0703125 93" stroke="none" stroke-width="0" fill="#ECECFF" style=""/><path d="M-274.0703125 -93 C-151.27999221009236 -93, -28.48967192018469 -93, 274.0703125 -93 M-274.0703125 -93 C-96.09399169818519 -93, 81.88232910362962 -93, 274.0703125 -93 M274.0703125 -93 C274.0703125 -31.33159752553307, 274.0703125 30.33680494893386, 274.0703125 93 M274.0703125 -93 C274.0703125 -42.099671634071775, 274.0703125 8.80065673185645, 274.0703125 93 M274.0703125 93 C101.47228841943269 93, -71.12573566113463 93, -274.0703125 93 M274.0703125 93 C114.33440153000222 93, -45.40150943999555 93, -274.0703125 93 M-274.0703125 93 C-274.0703125 31.433624458017576, -274.0703125 -30.13275108396485, -274.0703125 -93 M-274.0703125 93 C-274.0703125 51.240906256102015, -274.0703125 9.48181251220403, -274.0703125 -93" stroke="#9370DB" stroke-width="1.3" fill="none" stroke-dasharray="0 0" style=""/></g><g class="annotation-group text" transform="translate(0, -69)"/><g class="label-group text" transform="translate(-200.203125, -69)"><g class="label" style="font-weight: bolder" transform="translate(0,-18)"><foreignObject width="400.40625" height="36"><div xmlns="http://www.w3.org/1999/xhtml" style="display: table; white-space: break-spaces; line-height: 1.5; max-width: 292px; text-align: center; width: 292px;"><span class="nodeLabel markdown-node-label" style=""><p>VSCloneUnifiedChatBackendService</p></span></div></foreignObject></g></g><g class="members-group text" transform="translate(-262.0703125, -9)"/><g class="methods-group text" transform="translate(-262.0703125, 21)"><g class="label" style="" transform="translate(0,-18)"><foreignObject width="223.6875" height="36"><div xmlns="http://www.w3.org/1999/xhtml" style="display: table; white-space: break-spaces; line-height: 1.5; max-width: 191px; text-align: center; width: 191px;"><span class="nodeLabel markdown-node-label" style=""><p>+getPlanModeState()</p></span></div></foreignObject></g><g class="label" style="" transform="translate(0,18)"><foreignObject width="323.9375" height="36"><div xmlns="http://www.w3.org/1999/xhtml" style="display: table; white-space: break-spaces; line-height: 1.5; max-width: 247px; text-align: center; width: 247px;"><span class="nodeLabel markdown-node-label" style=""><p>+replacePlanModeState(state)</p></span></div></foreignObject></g></g><g class="divider" style=""><path d="M-274.0703125 -33 C-57.94434164531589 -33, 158.18162920936823 -33, 274.0703125 -33 M-274.0703125 -33 C-96.06843850363626 -33, 81.93343549272748 -33, 274.0703125 -33" stroke="#9370DB" stroke-width="1.3" fill="none" stroke-dasharray="0 0" style=""/></g><g class="divider" style=""><path d="M-274.0703125 -9 C-93.36337251866414 -9, 87.34356746267173 -9, 274.0703125 -9 M-274.0703125 -9 C-126.11526764831694 -9, 21.83977720336611 -9, 274.0703125 -9" stroke="#9370DB" stroke-width="1.3" fill="none" stroke-dasharray="0 0" style=""/></g></g><g class="node default" id="classId-VSCloneChatHistoryModel-2" transform="translate(282.0703125, 1106)"><g class="basic label-container"><path d="M-245.98046875 -126 L245.98046875 -126 L245.98046875 126 L-245.98046875 126" stroke="none" stroke-width="0" fill="#ECECFF" style=""/><path d="M-245.98046875 -126 C-94.7707891950152 -126, 56.438890359969605 -126, 245.98046875 -126 M-245.98046875 -126 C-111.67691682871046 -126, 22.62663509257908 -126, 245.98046875 -126 M245.98046875 -126 C245.98046875 -46.39398950363518, 245.98046875 33.212020992729634, 245.98046875 126 M245.98046875 -126 C245.98046875 -51.443548895128856, 245.98046875 23.112902209742288, 245.98046875 126 M245.98046875 126 C83.18532899971436 126, -79.60981075057128 126, -245.98046875 126 M245.98046875 126 C88.8996263557255 126, -68.181216038549 126, -245.98046875 126 M-245.98046875 126 C-245.98046875 57.469148338540165, -245.98046875 -11.06170332291967, -245.98046875 -126 M-245.98046875 126 C-245.98046875 33.205402933587564, -245.98046875 -59.58919413282487, -245.98046875 -126" stroke="#9370DB" stroke-width="1.3" fill="none" stroke-dasharray="0 0" style=""/></g><g class="annotation-group text" transform="translate(0, -102)"/><g class="label-group text" transform="translate(-144.0234375, -102)"><g class="label" style="font-weight: bolder" transform="translate(0,-18)"><foreignObject width="288.046875" height="36"><div xmlns="http://www.w3.org/1999/xhtml" style="display: table; white-space: break-spaces; line-height: 1.5; max-width: 229px; text-align: center; width: 229px;"><span class="nodeLabel markdown-node-label" style=""><p>VSCloneChatHistoryModel</p></span></div></foreignObject></g></g><g class="members-group text" transform="translate(-233.98046875, -42)"><g class="label" style="" transform="translate(0,-36)"><foreignObject width="160.125" height="72"><div xmlns="http://www.w3.org/1999/xhtml" style="display: table; white-space: break-spaces; line-height: 1.5; max-width: 159px; text-align: center; width: 159px;"><span class="nodeLabel markdown-node-label" style=""><p>-modeByThread</p></span></div></foreignObject></g></g><g class="methods-group text" transform="translate(-233.98046875, 54)"><g class="label" style="" transform="translate(0,-18)"><foreignObject width="223.6875" height="36"><div xmlns="http://www.w3.org/1999/xhtml" style="display: table; white-space: break-spaces; line-height: 1.5; max-width: 191px; text-align: center; width: 191px;"><span class="nodeLabel markdown-node-label" style=""><p>+getPlanModeState()</p></span></div></foreignObject></g><g class="label" style="" transform="translate(0,18)"><foreignObject width="323.9375" height="36"><div xmlns="http://www.w3.org/1999/xhtml" style="display: table; white-space: break-spaces; line-height: 1.5; max-width: 247px; text-align: center; width: 247px;"><span class="nodeLabel markdown-node-label" style=""><p>+replacePlanModeState(state)</p></span></div></foreignObject></g></g><g class="divider" style=""><path d="M-245.98046875 -66 C-83.90319779686203 -66, 78.17407315627594 -66, 245.98046875 -66 M-245.98046875 -66 C-125.27044347999167 -66, -4.5604182099833395 -66, 245.98046875 -66" stroke="#9370DB" stroke-width="1.3" fill="none" stroke-dasharray="0 0" style=""/></g><g class="divider" style=""><path d="M-245.98046875 30 C-126.2544007322105 30, -6.528332714420998 30, 245.98046875 30 M-245.98046875 30 C-79.1654241541672 30, 87.6496204416656 30, 245.98046875 30" stroke="#9370DB" stroke-width="1.3" fill="none" stroke-dasharray="0 0" style=""/></g></g><g class="node default" id="classId-VSCloneChatSessionService-3" transform="translate(576.228515625, 92)"><g class="basic label-container"><path d="M-244.15625 -84 L244.15625 -84 L244.15625 84 L-244.15625 84" stroke="none" stroke-width="0" fill="#ECECFF" style=""/><path d="M-244.15625 -84 C-123.84443437861026 -84, -3.5326187572205185 -84, 244.15625 -84 M-244.15625 -84 C-84.85478808945206 -84, 74.44667382109589 -84, 244.15625 -84 M244.15625 -84 C244.15625 -36.707754108255756, 244.15625 10.584491783488488, 244.15625 84 M244.15625 -84 C244.15625 -33.15269784299218, 244.15625 17.694604314015635, 244.15625 84 M244.15625 84 C136.6879417681525 84, 29.219633536305025 84, -244.15625 84 M244.15625 84 C92.14881233184795 84, -59.8586253363041 84, -244.15625 84 M-244.15625 84 C-244.15625 36.63123696596308, -244.15625 -10.737526068073834, -244.15625 -84 M-244.15625 84 C-244.15625 45.852713882622254, -244.15625 7.705427765244508, -244.15625 -84" stroke="#9370DB" stroke-width="1.3" fill="none" stroke-dasharray="0 0" style=""/></g><g class="annotation-group text" transform="translate(0, -60)"/><g class="label-group text" transform="translate(-153.15625, -60)"><g class="label" style="font-weight: bolder" transform="translate(0,-18)"><foreignObject width="306.3125" height="36"><div xmlns="http://www.w3.org/1999/xhtml" style="display: table; white-space: break-spaces; line-height: 1.5; max-width: 236px; text-align: center; width: 236px;"><span class="nodeLabel markdown-node-label" style=""><p>VSCloneChatSessionService</p></span></div></foreignObject></g></g><g class="members-group text" transform="translate(-232.15625, 0)"/><g class="methods-group text" transform="translate(-232.15625, 30)"><g class="label" style="" transform="translate(0,-36)"><foreignObject width="311.15625" height="72"><div xmlns="http://www.w3.org/1999/xhtml" style="display: table; white-space: break-spaces; line-height: 1.5; max-width: 294px; text-align: center; width: 294px;"><span class="nodeLabel markdown-node-label" style=""><p>+submitPrompt(promptText, options)</p></span></div></foreignObject></g></g><g class="divider" style=""><path d="M-244.15625 -24 C-114.39295549293058 -24, 15.370339014138835 -24, 244.15625 -24 M-244.15625 -24 C-50.0097944942961 -24, 144.1366610114078 -24, 244.15625 -24" stroke="#9370DB" stroke-width="1.3" fill="none" stroke-dasharray="0 0" style=""/></g><g class="divider" style=""><path d="M-244.15625 0 C-70.42014067073626 0, 103.31596865852748 0, 244.15625 0 M-244.15625 0 C-136.33756104139843 0, -28.518872082796833 0, 244.15625 0" stroke="#9370DB" stroke-width="1.3" fill="none" stroke-dasharray="0 0" style=""/></g></g><g class="node default" id="classId-VSClonePromptAssemblyService-4" transform="translate(870.38671875, 460)"><g class="basic label-container"><path d="M-292.390625 -84 L292.390625 -84 L292.390625 84 L-292.390625 84" stroke="none" stroke-width="0" fill="#ECECFF" style=""/><path d="M-292.390625 -84 C-96.06736028451806 -84, 100.25590443096388 -84, 292.390625 -84 M-292.390625 -84 C-87.01361681988473 -84, 118.36339136023054 -84, 292.390625 -84 M292.390625 -84 C292.390625 -46.45117271127556, 292.390625 -8.902345422551122, 292.390625 84 M292.390625 -84 C292.390625 -32.98884226765256, 292.390625 18.022315464694884, 292.390625 84 M292.390625 84 C83.62658266186065 84, -125.1374596762787 84, -292.390625 84 M292.390625 84 C98.56251406276823 84, -95.26559687446354 84, -292.390625 84 M-292.390625 84 C-292.390625 28.7224812771177, -292.390625 -26.555037445764597, -292.390625 -84 M-292.390625 84 C-292.390625 39.23033040897264, -292.390625 -5.539339182054718, -292.390625 -84" stroke="#9370DB" stroke-width="1.3" fill="none" stroke-dasharray="0 0" style=""/></g><g class="annotation-group text" transform="translate(0, -60)"/><g class="label-group text" transform="translate(-179.8125, -60)"><g class="label" style="font-weight: bolder" transform="translate(0,-18)"><foreignObject width="359.625" height="36"><div xmlns="http://www.w3.org/1999/xhtml" style="display: table; white-space: break-spaces; line-height: 1.5; max-width: 268px; text-align: center; width: 268px;"><span class="nodeLabel markdown-node-label" style=""><p>VSClonePromptAssemblyService</p></span></div></foreignObject></g></g><g class="members-group text" transform="translate(-280.390625, 0)"/><g class="methods-group text" transform="translate(-280.390625, 30)"><g class="label" style="" transform="translate(0,-36)"><foreignObject width="380.96875" height="72"><div xmlns="http://www.w3.org/1999/xhtml" style="display: table; white-space: break-spaces; line-height: 1.5; max-width: 378px; text-align: center; width: 378px;"><span class="nodeLabel markdown-node-label" style=""><p>+assembleSystemMessage(context, vendor, mode)</p></span></div></foreignObject></g></g><g class="divider" style=""><path d="M-292.390625 -24 C-59.304686747054205 -24, 173.7812515058916 -24, 292.390625 -24 M-292.390625 -24 C-154.44820245153 -24, -16.505779903059988 -24, 292.390625 -24" stroke="#9370DB" stroke-width="1.3" fill="none" stroke-dasharray="0 0" style=""/></g><g class="divider" style=""><path d="M-292.390625 0 C-127.10265009458328 0, 38.185324810833436 0, 292.390625 0 M-292.390625 0 C-84.24544918159819 0, 123.89972663680362 0, 292.390625 0" stroke="#9370DB" stroke-width="1.3" fill="none" stroke-dasharray="0 0" style=""/></g></g><g class="node default" id="classId-VSCloneToolExecutionService-5" transform="translate(1133.07421875, 92)"><g class="basic label-container"><path d="M-251.21875 -84 L251.21875 -84 L251.21875 84 L-251.21875 84" stroke="none" stroke-width="0" fill="#ECECFF" style=""/><path d="M-251.21875 -84 C-130.90381754892226 -84, -10.588885097844525 -84, 251.21875 -84 M-251.21875 -84 C-58.298944184503966 -84, 134.62086163099207 -84, 251.21875 -84 M251.21875 -84 C251.21875 -19.829702394795547, 251.21875 44.34059521040891, 251.21875 84 M251.21875 -84 C251.21875 -33.105382557530106, 251.21875 17.789234884939788, 251.21875 84 M251.21875 84 C146.47972632535448 84, 41.740702650708926 84, -251.21875 84 M251.21875 84 C76.07047759638817 84, -99.07779480722365 84, -251.21875 84 M-251.21875 84 C-251.21875 36.24605501037553, -251.21875 -11.507889979248944, -251.21875 -84 M-251.21875 84 C-251.21875 26.955108762931793, -251.21875 -30.089782474136413, -251.21875 -84" stroke="#9370DB" stroke-width="1.3" fill="none" stroke-dasharray="0 0" style=""/></g><g class="annotation-group text" transform="translate(0, -60)"/><g class="label-group text" transform="translate(-165.4375, -60)"><g class="label" style="font-weight: bolder" transform="translate(0,-18)"><foreignObject width="330.875" height="36"><div xmlns="http://www.w3.org/1999/xhtml" style="display: table; white-space: break-spaces; line-height: 1.5; max-width: 251px; text-align: center; width: 251px;"><span class="nodeLabel markdown-node-label" style=""><p>VSCloneToolExecutionService</p></span></div></foreignObject></g></g><g class="members-group text" transform="translate(-239.21875, 0)"/><g class="methods-group text" transform="translate(-239.21875, 30)"><g class="label" style="" transform="translate(0,-36)"><foreignObject width="313" height="72"><div xmlns="http://www.w3.org/1999/xhtml" style="display: table; white-space: break-spaces; line-height: 1.5; max-width: 313px; text-align: center; width: 313px;"><span class="nodeLabel markdown-node-label" style=""><p>+executeTool(toolName, params, mode)</p></span></div></foreignObject></g></g><g class="divider" style=""><path d="M-251.21875 -24 C-131.29170255480878 -24, -11.364655109617559 -24, 251.21875 -24 M-251.21875 -24 C-96.26578667354366 -24, 58.68717665291268 -24, 251.21875 -24" stroke="#9370DB" stroke-width="1.3" fill="none" stroke-dasharray="0 0" style=""/></g><g class="divider" style=""><path d="M-251.21875 0 C-66.0046205982012 0, 119.2095088035976 0, 251.21875 0 M-251.21875 0 C-77.78456764820746 0, 95.64961470358509 0, 251.21875 0" stroke="#9370DB" stroke-width="1.3" fill="none" stroke-dasharray="0 0" style=""/></g></g><g class="node default" id="classId-VSCLONE_TOOL_DEFINITIONS-6" transform="translate(1143.07421875, 837)"><g class="basic label-container"><path d="M-194.5859375 -72 L194.5859375 -72 L194.5859375 72 L-194.5859375 72" stroke="none" stroke-width="0" fill="#ECECFF" style=""/><path d="M-194.5859375 -72 C-45.707479628544945 -72, 103.17097824291011 -72, 194.5859375 -72 M-194.5859375 -72 C-103.86992789685601 -72, -13.153918293712024 -72, 194.5859375 -72 M194.5859375 -72 C194.5859375 -23.145473999694573, 194.5859375 25.709052000610853, 194.5859375 72 M194.5859375 -72 C194.5859375 -26.32632361934612, 194.5859375 19.34735276130776, 194.5859375 72 M194.5859375 72 C95.78888842341928 72, -3.0081606531614398 72, -194.5859375 72 M194.5859375 72 C48.063711801680284 72, -98.45851389663943 72, -194.5859375 72 M-194.5859375 72 C-194.5859375 35.51834102131944, -194.5859375 -0.963317957361113, -194.5859375 -72 M-194.5859375 72 C-194.5859375 28.948432565929814, -194.5859375 -14.103134868140373, -194.5859375 -72" stroke="#9370DB" stroke-width="1.3" fill="none" stroke-dasharray="0 0" style=""/></g><g class="annotation-group text" transform="translate(0, -48)"/><g class="label-group text" transform="translate(-164.53125, -48)"><g class="label" style="font-weight: bolder" transform="translate(0,-18)"><foreignObject width="329.0625" height="36"><div xmlns="http://www.w3.org/1999/xhtml" style="display: table; white-space: break-spaces; line-height: 1.5; max-width: 282px; text-align: center; width: 282px;"><span class="nodeLabel markdown-node-label" style=""><p>VSCLONE_TOOL_DEFINITIONS</p></span></div></foreignObject></g></g><g class="members-group text" transform="translate(-182.5859375, 12)"><g class="label" style="" transform="translate(0,-18)"><foreignObject width="200.640625" height="36"><div xmlns="http://www.w3.org/1999/xhtml" style="display: table; white-space: break-spaces; line-height: 1.5; max-width: 183px; text-align: center; width: 183px;"><span class="nodeLabel markdown-node-label" style=""><p>+planModeAllowed</p></span></div></foreignObject></g></g><g class="methods-group text" transform="translate(-182.5859375, 72)"/><g class="divider" style=""><path d="M-194.5859375 -12 C-39.816565960698284 -12, 114.95280557860343 -12, 194.5859375 -12 M-194.5859375 -12 C-75.49554077040983 -12, 43.594855959180336 -12, 194.5859375 -12" stroke="#9370DB" stroke-width="1.3" fill="none" stroke-dasharray="0 0" style=""/></g><g class="divider" style=""><path d="M-194.5859375 48 C-74.15853799520916 48, 46.26886150958168 48, 194.5859375 48 M-194.5859375 48 C-93.57318035643253 48, 7.439576787134939 48, 194.5859375 48" stroke="#9370DB" stroke-width="1.3" fill="none" stroke-dasharray="0 0" style=""/></g></g></g></g></g></svg>